<svg class="main-svg" xmlns="http://www.w3.org/2000/svg" xmlns:xlink="http://www.w3.org/1999/xlink" width="800" height="500" style="" viewBox="0 0 800 500"><rect x="0" y="0" width="800" height="500" style="fill: rgb(255, 255, 255); fill-opacity: 1;"/><defs id="defs-ed4453"><g class="clips"><clipPath id="cliped4453xyplot" class="plotclip"><rect width="640" height="320"/></clipPath><clipPath class="axesclip" id="cliped4453x"><rect x="80" y="0" width="640" height="500"/></clipPath><clipPath class="axesclip" id="cliped4453y"><rect x="0" y="100" width="800" height="320"/></clipPath><clipPath class="axesclip" id="cliped4453xy"><rect x="80" y="100" width="640" height="320"/></clipPath></g><g class="gradients"/><g class="patterns"/></defs><g class="bglayer"/><g class="layer-below"><g class="imagelayer"/><g class="shapelayer"/></g><g class="cartesianlayer"><g class="subplot xy"><g class="layer-subplot"><g class="shapelayer"><path data-index="0" fill-rule="evenodd" d=" M 115.75,129 L295.18,125.8 L474.6,126.8 L654.03,126.2 L654.03,157.6 L474.6,160.4 L295.18,160.2 L115.75,165.4 Z" clip-path="url(#cliped4453xy)" style="opacity: 1; stroke: rgb(0, 0, 0); stroke-opacity: 0; fill: rgb(245, 245, 245); fill-opacity: 1; stroke-width: 0px;"/><path data-index="1" fill-rule="evenodd" d=" M 115.75,383.6 L295.18,385.6 L474.6,386.4 L654.03,388.6 L654.03,420 L474.6,420 L295.18,420 L115.75,420 Z" clip-path="url(#cliped4453xy)" style="opacity: 1; stroke: rgb(0, 0, 0); stroke-opacity: 0; fill: rgb(245, 245, 245); fill-opacity: 1; stroke-width: 0px;"/></g><g class="imagelayer"/></g><g class="gridlayer"><g class="x"/><g class="y"/></g><g class="zerolinelayer"/><path class="xlines-below"/><path class="ylines-below"/><g class="overlines-below"/><g class="xaxislayer-below"/><g class="yaxislayer-below"/><g class="overaxes-below"/><g class="plot" transform="translate(80,100)" clip-path="url(#cliped4453xyplot)"><g class="scatterlayer mlayer"><g class="trace scatter tracebb1b91" style="stroke-miterlimit: 2; opacity: 1;"><g class="fills"/><g class="errorbars"/><g class="lines"><path class="js-line" d="M35.75,29L215.18,25.8L394.6,26.8L574.03,26.2" style="vector-effect: non-scaling-stroke; fill: none; stroke: rgb(91, 133, 146); stroke-opacity: 1; stroke-width: 2px; opacity: 1;"/></g><g class="points"/><g class="text"/></g><g class="trace scatter trace5eb488" style="stroke-miterlimit: 2; opacity: 1;"><g class="fills"/><g class="errorbars"/><g class="lines"/><g class="points"><path class="point" transform="translate(35.75,29)" d="M3,0A3,3 0 1,1 0,-3A3,3 0 0,1 3,0Z" style="opacity: 1; stroke-width: 0px; fill: rgb(91, 133, 146); fill-opacity: 1;"/><path class="point" transform="translate(215.18,25.8)" d="M3,0A3,3 0 1,1 0,-3A3,3 0 0,1 3,0Z" style="opacity: 1; stroke-width: 0px; fill: rgb(91, 133, 146); fill-opacity: 1;"/><path class="point" transform="translate(394.6,26.8)" d="M3,0A3,3 0 1,1 0,-3A3,3 0 0,1 3,0Z" style="opacity: 1; stroke-width: 0px; fill: rgb(91, 133, 146); fill-opacity: 1;"/><path class="point" transform="translate(574.03,26.2)" d="M3,0A3,3 0 1,1 0,-3A3,3 0 0,1 3,0Z" style="opacity: 1; stroke-width: 0px; fill: rgb(91, 133, 146); fill-opacity: 1;"/></g><g class="text"><g class="textpoint" transform="translate(0,-7.25)"><text x="35.75" y="29" text-anchor="middle" style="font-family: 'Bahnschrift Light'; font-size: 10px; fill: rgb(128, 128, 128); fill-opacity: 1; white-space: pre;">14.55</text></g><g class="textpoint" transform="translate(0,-7.25)"><text x="215.18" y="25.8" text-anchor="middle" style="font-family: 'Bahnschrift Light'; font-size: 10px; fill: rgb(128, 128, 128); fill-opacity: 1; white-space: pre;">14.71</text></g><g class="textpoint" transform="translate(0,-7.25)"><text x="394.6" y="26.8" text-anchor="middle" style="font-family: 'Bahnschrift Light'; font-size: 10px; fill: rgb(128, 128, 128); fill-opacity: 1; white-space: pre;">14.66</text></g><g class="textpoint" transform="translate(0,-7.25)"><text x="574.03" y="26.2" text-anchor="middle" style="font-family: 'Bahnschrift Light'; font-size: 10px; fill: rgb(128, 128, 128); fill-opacity: 1; white-space: pre;">14.69</text></g></g></g><g class="trace scatter trace5c0b6d" style="stroke-miterlimit: 2; opacity: 1;"><g class="fills"/><g class="errorbars"/><g class="lines"><path class="js-line" d="M35.75,65.4L215.18,60.2L394.6,60.4L574.03,57.6" style="vector-effect: non-scaling-stroke; fill: none; stroke: rgb(251, 180, 185); stroke-opacity: 1; stroke-width: 2px; opacity: 1;"/></g><g class="points"/><g class="text"/></g><g class="trace scatter trace6fa3e7" style="stroke-miterlimit: 2; opacity: 1;"><g class="fills"/><g class="errorbars"/><g class="lines"/><g class="points"><path class="point" transform="translate(35.75,65.4)" d="M3,0A3,3 0 1,1 0,-3A3,3 0 0,1 3,0Z" style="opacity: 1; stroke-width: 0px; fill: rgb(251, 180, 185); fill-opacity: 1;"/><path class="point" transform="translate(215.18,60.2)" d="M3,0A3,3 0 1,1 0,-3A3,3 0 0,1 3,0Z" style="opacity: 1; stroke-width: 0px; fill: rgb(251, 180, 185); fill-opacity: 1;"/><path class="point" transform="translate(394.6,60.4)" d="M3,0A3,3 0 1,1 0,-3A3,3 0 0,1 3,0Z" style="opacity: 1; stroke-width: 0px; fill: rgb(251, 180, 185); fill-opacity: 1;"/><path class="point" transform="translate(574.03,57.6)" d="M3,0A3,3 0 1,1 0,-3A3,3 0 0,1 3,0Z" style="opacity: 1; stroke-width: 0px; fill: rgb(251, 180, 185); fill-opacity: 1;"/></g><g class="text"><g class="textpoint" transform="translate(0,12.25)"><text x="35.75" y="65.4" text-anchor="middle" style="font-family: 'Bahnschrift Light'; font-size: 10px; fill: rgb(128, 128, 128); fill-opacity: 1; white-space: pre;">12.73</text></g><g class="textpoint" transform="translate(0,12.25)"><text x="215.18" y="60.2" text-anchor="middle" style="font-family: 'Bahnschrift Light'; font-size: 10px; fill: rgb(128, 128, 128); fill-opacity: 1; white-space: pre;">12.99</text></g><g class="textpoint" transform="translate(0,12.25)"><text x="394.6" y="60.4" text-anchor="middle" style="font-family: 'Bahnschrift Light'; font-size: 10px; fill: rgb(128, 128, 128); fill-opacity: 1; white-space: pre;">12.98</text></g><g class="textpoint" transform="translate(0,12.25)"><text x="574.03" y="57.6" text-anchor="middle" style="font-family: 'Bahnschrift Light'; font-size: 10px; fill: rgb(128, 128, 128); fill-opacity: 1; white-space: pre;">13.12</text></g></g></g><g class="trace scatter tracec5114c" style="stroke-miterlimit: 2; opacity: 1;"><g class="fills"/><g class="errorbars"/><g class="lines"><path class="js-line" d="M35.75,283.6L215.18,285.6L394.6,286.4L574.03,288.6" style="vector-effect: non-scaling-stroke; fill: none; stroke: rgb(23, 23, 23); stroke-opacity: 1; stroke-width: 2px; opacity: 1;"/></g><g class="points"/><g class="text"/></g><g class="trace scatter traceacb408" style="stroke-miterlimit: 2; opacity: 1;"><g class="fills"/><g class="errorbars"/><g class="lines"/><g class="points"><path class="point" transform="translate(35.75,283.6)" d="M3,0A3,3 0 1,1 0,-3A3,3 0 0,1 3,0Z" style="opacity: 1; stroke-width: 0px; fill: rgb(23, 23, 23); fill-opacity: 1;"/><path class="point" transform="translate(215.18,285.6)" d="M3,0A3,3 0 1,1 0,-3A3,3 0 0,1 3,0Z" style="opacity: 1; stroke-width: 0px; fill: rgb(23, 23, 23); fill-opacity: 1;"/><path class="point" transform="translate(394.6,286.4)" d="M3,0A3,3 0 1,1 0,-3A3,3 0 0,1 3,0Z" style="opacity: 1; stroke-width: 0px; fill: rgb(23, 23, 23); fill-opacity: 1;"/><path class="point" transform="translate(574.03,288.6)" d="M3,0A3,3 0 1,1 0,-3A3,3 0 0,1 3,0Z" style="opacity: 1; stroke-width: 0px; fill: rgb(23, 23, 23); fill-opacity: 1;"/></g><g class="text"><g class="textpoint" transform="translate(0,12.25)"><text x="35.75" y="283.6" text-anchor="middle" style="font-family: 'Bahnschrift Light'; font-size: 10px; fill: rgb(128, 128, 128); fill-opacity: 1; white-space: pre;">1.82</text></g><g class="textpoint" transform="translate(0,12.25)"><text x="215.18" y="285.6" text-anchor="middle" style="font-family: 'Bahnschrift Light'; font-size: 10px; fill: rgb(128, 128, 128); fill-opacity: 1; white-space: pre;">1.72</text></g><g class="textpoint" transform="translate(0,12.25)"><text x="394.6" y="286.4" text-anchor="middle" style="font-family: 'Bahnschrift Light'; font-size: 10px; fill: rgb(128, 128, 128); fill-opacity: 1; white-space: pre;">1.68</text></g><g class="textpoint" transform="translate(0,12.25)"><text x="574.03" y="288.6" text-anchor="middle" style="font-family: 'Bahnschrift Light'; font-size: 10px; fill: rgb(128, 128, 128); fill-opacity: 1; white-space: pre;">1.57</text></g></g></g></g></g><g class="overplot"/><path class="xlines-above crisp" d="M78,421H720" style="fill: none; stroke-width: 2px; stroke: rgb(204, 204, 204); stroke-opacity: 1;"/><path class="ylines-above crisp" d="M79,100V420" style="fill: none; stroke-width: 2px; stroke: rgb(204, 204, 204); stroke-opacity: 1;"/><g class="overlines-above"/><g class="xaxislayer-above"><path class="xtick ticks crisp" d="M0,422v5" transform="translate(115.75,0)" style="stroke: rgb(68, 68, 68); stroke-opacity: 1; stroke-width: 1px;"/><path class="xtick ticks crisp" d="M0,422v5" transform="translate(295.18,0)" style="stroke: rgb(68, 68, 68); stroke-opacity: 1; stroke-width: 1px;"/><path class="xtick ticks crisp" d="M0,422v5" transform="translate(474.6,0)" style="stroke: rgb(68, 68, 68); stroke-opacity: 1; stroke-width: 1px;"/><path class="xtick ticks crisp" d="M0,422v5" transform="translate(654.03,0)" style="stroke: rgb(68, 68, 68); stroke-opacity: 1; stroke-width: 1px;"/><g class="xtick"><text text-anchor="middle" x="0" y="439" transform="translate(115.75,0)" style="font-family: 'Bahnschrift Light'; font-size: 10px; fill: rgb(128, 128, 128); fill-opacity: 1; white-space: pre; opacity: 1;">2014</text></g><g class="xtick"><text text-anchor="middle" x="0" y="439" style="font-family: 'Bahnschrift Light'; font-size: 10px; fill: rgb(128, 128, 128); fill-opacity: 1; white-space: pre; opacity: 1;" transform="translate(295.18,0)">2015</text></g><g class="xtick"><text text-anchor="middle" x="0" y="439" style="font-family: 'Bahnschrift Light'; font-size: 10px; fill: rgb(128, 128, 128); fill-opacity: 1; white-space: pre; opacity: 1;" transform="translate(474.6,0)">2016</text></g><g class="xtick"><text text-anchor="middle" x="0" y="439" style="font-family: 'Bahnschrift Light'; font-size: 10px; fill: rgb(128, 128, 128); fill-opacity: 1; white-space: pre; opacity: 1;" transform="translate(654.03,0)">2017</text></g></g><g class="yaxislayer-above"><path class="ytick ticks crisp" d="M78,0h-5" transform="translate(0,420)" style="stroke: rgb(68, 68, 68); stroke-opacity: 1; stroke-width: 1px;"/><path class="ytick ticks crisp" d="M78,0h-5" transform="translate(0,380)" style="stroke: rgb(68, 68, 68); stroke-opacity: 1; stroke-width: 1px;"/><path class="ytick ticks crisp" d="M78,0h-5" transform="translate(0,340)" style="stroke: rgb(68, 68, 68); stroke-opacity: 1; stroke-width: 1px;"/><path class="ytick ticks crisp" d="M78,0h-5" transform="translate(0,300)" style="stroke: rgb(68, 68, 68); stroke-opacity: 1; stroke-width: 1px;"/><path class="ytick ticks crisp" d="M78,0h-5" transform="translate(0,260)" style="stroke: rgb(68, 68, 68); stroke-opacity: 1; stroke-width: 1px;"/><path class="ytick ticks crisp" d="M78,0h-5" transform="translate(0,220)" style="stroke: rgb(68, 68, 68); stroke-opacity: 1; stroke-width: 1px;"/><path class="ytick ticks crisp" d="M78,0h-5" transform="translate(0,180)" style="stroke: rgb(68, 68, 68); stroke-opacity: 1; stroke-width: 1px;"/><path class="ytick ticks crisp" d="M78,0h-5" transform="translate(0,140)" style="stroke: rgb(68, 68, 68); stroke-opacity: 1; stroke-width: 1px;"/><path class="ytick ticks crisp" d="M78,0h-5" transform="translate(0,100)" style="stroke: rgb(68, 68, 68); stroke-opacity: 1; stroke-width: 1px;"/><g class="ytick"><text text-anchor="end" x="71" y="3.5" transform="translate(0,420)" style="font-family: 'Bahnschrift Light'; font-size: 10px; fill: rgb(128, 128, 128); fill-opacity: 1; white-space: pre; opacity: 1;">0</text></g><g class="ytick"><text text-anchor="end" x="71" y="3.5" style="font-family: 'Bahnschrift Light'; font-size: 10px; fill: rgb(128, 128, 128); fill-opacity: 1; white-space: pre; opacity: 1;" transform="translate(0,380)">2</text></g><g class="ytick"><text text-anchor="end" x="71" y="3.5" style="font-family: 'Bahnschrift Light'; font-size: 10px; fill: rgb(128, 128, 128); fill-opacity: 1; white-space: pre; opacity: 1;" transform="translate(0,340)">4</text></g><g class="ytick"><text text-anchor="end" x="71" y="3.5" style="font-family: 'Bahnschrift Light'; font-size: 10px; fill: rgb(128, 128, 128); fill-opacity: 1; white-space: pre; opacity: 1;" transform="translate(0,300)">6</text></g><g class="ytick"><text text-anchor="end" x="71" y="3.5" style="font-family: 'Bahnschrift Light'; font-size: 10px; fill: rgb(128, 128, 128); fill-opacity: 1; white-space: pre; opacity: 1;" transform="translate(0,260)">8</text></g><g class="ytick"><text text-anchor="end" x="71" y="3.5" style="font-family: 'Bahnschrift Light'; font-size: 10px; fill: rgb(128, 128, 128); fill-opacity: 1; white-space: pre; opacity: 1;" transform="translate(0,220)">10</text></g><g class="ytick"><text text-anchor="end" x="71" y="3.5" style="font-family: 'Bahnschrift Light'; font-size: 10px; fill: rgb(128, 128, 128); fill-opacity: 1; white-space: pre; opacity: 1;" transform="translate(0,180)">12</text></g><g class="ytick"><text text-anchor="end" x="71" y="3.5" style="font-family: 'Bahnschrift Light'; font-size: 10px; fill: rgb(128, 128, 128); fill-opacity: 1; white-space: pre; opacity: 1;" transform="translate(0,140)">14</text></g><g class="ytick"><text text-anchor="end" x="71" y="3.5" style="font-family: 'Bahnschrift Light'; font-size: 10px; fill: rgb(128, 128, 128); fill-opacity: 1; white-space: pre; opacity: 1;" transform="translate(0,100)">16</text></g></g><g class="overaxes-above"/></g></g><g class="polarlayer"/><g class="ternarylayer"/><g class="geolayer"/><g class="funnelarealayer"/><g class="pielayer"/><g class="iciclelayer"/><g class="treemaplayer"/><g class="sunburstlayer"/><g class="glimages"/><defs id="topdefs-ed4453"><g class="clips"/></defs><g class="layer-above"><g class="imagelayer"/><g class="shapelayer"><path data-index="2" fill-rule="evenodd" d="M115.75,383.6L654.03,383.6" clip-path="url(#cliped4453xy)" style="opacity: 1; stroke: rgb(128, 128, 128); stroke-opacity: 1; fill: rgb(0, 0, 0); fill-opacity: 0; stroke-dasharray: 9px, 9px; stroke-width: 2px;"/></g></g><g class="infolayer"><g class="g-gtitle"/><g class="g-xtitle"><text class="xtitle" x="400" y="464.4" text-anchor="middle" style="font-family: 'Bahnschrift Light'; font-size: 12px; fill: rgb(128, 128, 128); opacity: 1; font-weight: normal; white-space: pre;">Year</text></g><g class="g-ytitle"><text class="ytitle" transform="rotate(-90,38.584375,260)" x="38.584375" y="260" text-anchor="middle" style="font-family: 'Bahnschrift Light'; font-size: 12px; fill: rgb(128, 128, 128); opacity: 1; font-weight: normal; white-space: pre;">Gross salary [€/h]</text></g><g class="annotation" data-index="0" style="opacity: 1;"><g class="annotation-text-g" transform="rotate(0,682,126.2)"><g class="cursor-pointer" transform="translate(663,116)"><rect class="bg" x="0.5" y="0.5" width="37" height="19" style="stroke-width: 1px; stroke: rgb(0, 0, 0); stroke-opacity: 0; fill: rgb(0, 0, 0); fill-opacity: 0;"/><text class="annotation-text" text-anchor="middle" x="19.109375" y="15" style="font-family: 'Bahnschrift Light'; font-size: 16px; fill: rgb(91, 133, 146); fill-opacity: 1; white-space: pre;">Male</text></g></g></g><g class="annotation" data-index="1" style="opacity: 1;"><g class="annotation-text-g" transform="rotate(0,691.5,157.6)"><g class="cursor-pointer" transform="translate(663,148)"><rect class="bg" x="0.5" y="0.5" width="56" height="19" style="stroke-width: 1px; stroke: rgb(0, 0, 0); stroke-opacity: 0; fill: rgb(0, 0, 0); fill-opacity: 0;"/><text class="annotation-text" text-anchor="middle" x="28.484375" y="15" style="font-family: 'Bahnschrift Light'; font-size: 16px; fill: rgb(251, 180, 185); fill-opacity: 1; white-space: pre;">Female</text></g></g></g><g class="annotation" data-index="2" style="opacity: 1;"><g class="annotation-text-g" transform="rotate(0,679,388.6)"><g class="cursor-pointer" transform="translate(663,378)"><rect class="bg" x="0.5" y="0.5" width="31" height="20" style="stroke-width: 1px; stroke: rgb(0, 0, 0); stroke-opacity: 0; fill: rgb(0, 0, 0); fill-opacity: 0;"/><text class="annotation-text" text-anchor="middle" x="15.78125" y="15" style="font-family: 'Bahnschrift Light'; font-size: 16px; fill: rgb(23, 23, 23); fill-opacity: 1; white-space: pre;">Gap</text></g></g></g></g></svg>